<?xml version="1.0" encoding="utf-8"?>
<!-- Generator: Adobe Illustrator 16.0.0, SVG Export Plug-In . SVG Version: 6.00 Build 0)  -->
<!DOCTYPE svg PUBLIC "-//W3C//DTD SVG 1.1//EN" "http://www.w3.org/Graphics/SVG/1.1/DTD/svg11.dtd">
<svg version="1.1" id="Layer_1" xmlns="http://www.w3.org/2000/svg" xmlns:xlink="http://www.w3.org/1999/xlink" x="0px" y="0px"
	 width="400px" height="400px" viewBox="0 0 400 400" enable-background="new 0 0 400 400" xml:space="preserve">
<g id="XMLID_1_">
	<g>
	</g>
	<g>
		<line fill="none" stroke="#000000" stroke-miterlimit="10" x1="231.9" y1="61.82" x2="232" y2="61.75"/>
		<path fill="none" stroke="#000000" stroke-miterlimit="10" d="M101.05,154.76c-0.33,0.17-10.03,6.84-12.96,11.46
			c-5.88,9.28-5.19,23.14-7.97,33.57c-0.04,0.14-0.07,0.27-0.11,0.41"/>
		<polyline fill="none" stroke="#000000" stroke-miterlimit="10" points="100.9,154.87 101.05,154.76 231.9,61.82 		"/>
		<path fill="none" stroke="#000000" stroke-miterlimit="10" d="M127.73,170.37c-2.57,0.12-6.66,0.6-10.84,1.35
			c-4.91,0.88-9.94,2.13-12.79,3.62c-9.86,5.17-15.42,17.03-23.18,24.66"/>
		<polyline fill="none" stroke="#000000" stroke-miterlimit="10" points="115.25,171.92 116.89,171.72 277.72,151.85 277.95,151.82 
					"/>
		<path fill="none" stroke="#000000" stroke-miterlimit="10" d="M235.88,62.33C232.37,73.9,245,82,251,92c3,7-1,14,2,21
			c6,11,12,21,19,32c1,2,4,2,5,4c1,1,1,2,0.7,2.72"/>
		<path fill="none" stroke="#000000" stroke-miterlimit="10" d="M236.5,62.5c-0.2-0.07-0.41-0.12-0.62-0.18
			C234.48,62,232.87,62,232,62c-0.03-0.06-0.07-0.12-0.1-0.18c-3.851-6.96-0.86-14.86,4.1-19.82c5-5,14-5,18,1c3,6,3,14.52,8,21.52
			c7,7,8.64,23.33,15.64,32.33c4,7,8.03,9.67,11.03,16.67c4,7,7.97,12.14,10.97,19.14c0,2,3.391,4.73,3.391,8.4"/>
	</g>
</g>
<path fill="none" stroke="#000000" stroke-miterlimit="10" d="M303.262,143.954c-0.438,14.322-32.655,16.272-24.213,1.248
	C283.29,137.654,303.714,129.194,303.262,143.954z"/>
<path fill="none" stroke="#000000" stroke-miterlimit="10" d="M139.218,173.861c-6.093,1.139-28.823,2.755-34.093,5.514
	c-9.865,5.163-16.106,11.957-23.865,19.584"/>
<line fill="none" stroke="#000000" stroke-miterlimit="10" x1="139.218" y1="173.861" x2="292" y2="155.123"/>
</svg>
